{
    "asset" : {
        "generator" : "Khronos glTF Blender I/O v1.8.19",
        "version" : "2.0"
    },
    "scene" : 0,
    "scenes" : [
        {
            "name" : "Scene",
            "nodes" : [
                0,
                1
            ]
        }
    ],
    "nodes" : [
        {
            "mesh" : 0,
            "name" : "Sphere"
        },
        {
            "mesh" : 1,
            "name" : "Torus"
        }
    ],
    "materials" : [
        {
            "doubleSided" : true,
            "name" : "Material.001",
            "pbrMetallicRoughness" : {
                "metallicFactor" : 0.7127659320831299,
                "roughnessFactor" : 0.6063829660415649
            }
        },
        {
            "doubleSided" : true,
            "name" : "Material.002",
            "pbrMetallicRoughness" : {
                "baseColorFactor" : [
                    0,
                    0,
                    0,
                    1
                ],
                "metallicFactor" : 0,
                "roughnessFactor" : 0.2978723347187042
            }
        }
    ],
    "meshes" : [
        {
            "name" : "Sphere",
            "primitives" : [
                {
                    "attributes" : {
                        "POSITION" : 0,
                        "NORMAL" : 1,
                        "TEXCOORD_0" : 2
                    },
                    "indices" : 3,
                    "material" : 0
                }
            ]
        },
        {
            "name" : "Torus",
            "primitives" : [
                {
                    "attributes" : {
                        "POSITION" : 4,
                        "NORMAL" : 5,
                        "TEXCOORD_0" : 6
                    },
                    "indices" : 7,
                    "material" : 1
                }
            ]
        }
    ],
    "accessors" : [
        {
            "bufferView" : 0,
            "componentType" : 5126,
            "count" : 1984,
            "max" : [
                1.0349667072296143,
                1.0000433921813965,
                1.0353052616119385
            ],
            "min" : [
                -0.9999839663505554,
                -1.0241053104400635,
                -0.9789775013923645
            ],
            "type" : "VEC3"
        },
        {
            "bufferView" : 1,
            "componentType" : 5126,
            "count" : 1984,
            "type" : "VEC3"
        },
        {
            "bufferView" : 2,
            "componentType" : 5126,
            "count" : 1984,
            "type" : "VEC2"
        },
        {
            "bufferView" : 3,
            "componentType" : 5123,
            "count" : 2880,
            "type" : "SCALAR"
        },
        {
            "bufferView" : 4,
            "componentType" : 5126,
            "count" : 2304,
            "max" : [
                1.25,
                0.25,
                1.25
            ],
            "min" : [
                -1.25,
                -0.25,
                -1.25
            ],
            "type" : "VEC3"
        },
        {
            "bufferView" : 5,
            "componentType" : 5126,
            "count" : 2304,
            "type" : "VEC3"
        },
        {
            "bufferView" : 6,
            "componentType" : 5126,
            "count" : 2304,
            "type" : "VEC2"
        },
        {
            "bufferView" : 7,
            "componentType" : 5123,
            "count" : 3456,
            "type" : "SCALAR"
        }
    ],
    "bufferViews" : [
        {
            "buffer" : 0,
            "byteLength" : 23808,
            "byteOffset" : 0
        },
        {
            "buffer" : 0,
            "byteLength" : 23808,
            "byteOffset" : 23808
        },
        {
            "buffer" : 0,
            "byteLength" : 15872,
            "byteOffset" : 47616
        },
        {
            "buffer" : 0,
            "byteLength" : 5760,
            "byteOffset" : 63488
        },
        {
            "buffer" : 0,
            "byteLength" : 27648,
            "byteOffset" : 69248
        },
        {
            "buffer" : 0,
            "byteLength" : 27648,
            "byteOffset" : 96896
        },
        {
            "buffer" : 0,
            "byteLength" : 18432,
            "byteOffset" : 124544
        },
        {
            "buffer" : 0,
            "byteLength" : 6912,
            "byteOffset" : 142976
        }
    ],
    "buffers" : [
        {
            "byteLength" : 149888,
            "uri" : "data:application/octet-stream;base64,"
        }
    ]
}
