<svg id="Layer_3" data-name="Layer 3" xmlns="http://www.w3.org/2000/svg" viewBox="0 0 1080 1080"><defs><style>.triangles{fill:#ffeb79;stroke:#ffeb79;stroke-width:27px;}.triangles,.rind{stroke-linecap:roundw;stroke-linejoin:round;}.rind{fill:none;stroke:#ffca24;stroke-width:28px;}</style></defs><g id="Layer_7" data-name="Layer 7"><path class="triangles" d="M567,409l299.16-51.35s14.83-42.48-4.37-76.58-41.62-50.82-41.62-50.82Z"/><path class="triangles" d="M574,441l284.46,95.75s31.26-30.22,29.08-69.12-14.65-64.07-14.65-64.07Z"/><path class="triangles" d="M553,471,769.5,719.5s55.72-27.73,72.34-67,16.74-70.09,16.74-70.09Z"/><path class="triangles" d="M527,498l55.23,331.09s42.07,7.27,80.8-13.84C730.5,778.5,730.5,745.5,730.5,745.5Z"/><path class="triangles" d="M493,498,351.5,812.5s52.83,48,97.82,47.39S523.9,846,523.9,846Z"/><path class="triangles" d="M464.53,486.15,186.83,698.71s9.36,49.28,48.83,71.94,72.18,26.68,72.18,26.68Z"/><path class="rind" d="M855.51,197.34c96.27,140.35,125.39,438.4-84.34,607.48-187.26,151-471.3,123.64-630-67.31"/></g></svg>